<svg xmlns="http://www.w3.org/2000/svg" viewBox="0 0 357.71 280.85"><g id="Capa_2" data-name="Capa 2"><g id="TEXTOS"><path d="M0,86.63c2.73-7.71,8.35-10.17,16.27-10.15,53.21.18,106.42.08,159.63.11,7.3,0,14-1.47,19.74-6.43,8.25-7.17,11.07-19.72,6.48-29.59a25.39,25.39,0,0,0-48.49,7.78,37.63,37.63,0,0,1-.9,6.21c-1.64,6.07-7.51,9.77-14,9a12.66,12.66,0,0,1-10.92-12.16C127,27.64,145.89,4.63,169.47.76c27.84-4.57,52.66,11.85,59.24,39.17,6.75,28.09-13.22,57.43-41.9,61.41A79.17,79.17,0,0,1,176,102c-53.21,0-106.42-.06-159.63.14-7.9,0-13.52-2.36-16.41-10Z"/><path d="M0,188.64c2.89-7.59,8.51-10,16.41-9.95,53.67.2,107.35.08,161,.12,23,0,41.85,12.92,49.44,33.62,11.07,30.18-8.55,63.14-40.39,67.86-30.6,4.53-58.28-18.8-58.64-49.44-.09-7.49,4.75-13.16,11.62-13.61,7.37-.48,13,4.13,13.66,11.81.74,8.36,3.35,15.59,10.17,20.95a25.85,25.85,0,0,0,29.42,1.28c8.75-5.53,13.49-17.12,11-27-2.68-10.88-11.51-18.67-22.29-19.6-2.44-.21-4.88-.34-7.32-.34-52.63,0-105.25-.1-157.88.08-7.92,0-13.54-2.44-16.27-10.15Z"/><path d="M162.14,153.14q-72.82,0-145.64,0a23.5,23.5,0,0,1-6.55-.67A12.28,12.28,0,0,1,1.24,138.7,12.43,12.43,0,0,1,13,127.79c1.62-.1,3.26-.07,4.89-.07q143,0,286,0c11.42,0,20.62-4,25.63-14.7,4.62-9.81,3.25-19.24-3.76-27.68a25.46,25.46,0,0,0-26.29-7.69c-9.79,3-16.95,11.29-18,21-.16,1.5-.38,3-.54,4.51a12.51,12.51,0,0,1-13.24,11.6c-6.88-.28-12-5.69-12.07-12.82-.32-24.82,18.82-46.92,43.57-50.3,32.26-4.41,59.85,20.67,58.46,53.14-1.11,26-22.84,47.91-48.84,48.18-41.55.42-83.12.16-124.68.19Q173.15,153.16,162.14,153.14Z"/></g></g></svg>