  <svg xmlns="http://www.w3.org/2000/svg" viewBox="0 0 284.57 284.6">
                          <defs>
                            <style>
                              .cls-1 {
                                fill: #6E7491;
                              }

                              .cls-2 {
                                fill: none;
                                stroke: #6E7491;
                                stroke-miterlimit: 10;
                                stroke-width: 6px;
                              }
                            </style>
                          </defs>
                          <g id="Capa_2" data-name="Capa 2">
                            <g id="Capa_1-2" data-name="Capa 1">
                              <path class="cls-1" d="M142.58,284.32c-35.65,0-71.31-.51-107,.21C16.67,284.91.29,268.4.21,249.36q-.42-107,0-213.9C.28,16.46,16.23-.12,35.92,0q106.44.68,212.9,0c20.52-.14,35.72,18.19,35.69,36q-.13,73.47,0,146.93c0,21.66-.28,43.32.08,65,.29,17.29-14.48,37.32-36.54,36.69C212.9,283.58,177.73,284.32,142.58,284.32ZM142.51,13v0c-35.48,0-71,.05-106.45,0-9.12,0-16,3.93-19.68,12A39.71,39.71,0,0,0,13,40.72c-.21,66.13-.14,132.27-.13,198.4,0,3.67-.05,7.35.27,11,1.12,12.71,10.63,21.65,23.09,21.66q106.2,0,212.4,0c9.27,0,16.34-4.13,19.9-12.46a43.14,43.14,0,0,0,3.26-16.4c.21-66.8.13-133.6.12-200.41,0-1.83,0-3.66-.07-5.49-.54-12-8.76-24.58-25.41-24.27C211.82,13.41,177.16,13,142.51,13Z" />
                              <path class="cls-1" d="M252.89,172.83h-19.7v5.74c0,17.49,0,35,0,52.49,0,7.21-3,10-10.11,9.9-6.66-.08-9.37-2.62-9.44-9.42-.12-12.33,0-24.67,0-37,0-6-.09-12,.08-18,.1-3.47-1.15-4.62-5-3.2v5.16q0,26,0,52c0,7.66-2.52,10.4-9.45,10.47-7.13.07-10-2.85-10-10.54-.06-19,0-38,0-57.46h-20c1-2.37,1.56-4,2.28-5.51,5.35-11.45,10.78-22.88,16.07-34.36a14.48,14.48,0,0,0,1.49-5.67q.21-17.25,0-34.5c0-1.28-1.15-2.56-1.77-3.83-.61,1.3-1.72,2.6-1.73,3.92-.15,11.16-.05,22.33-.11,33.5,0,6.14-2.39,9-7.41,9.19-5.41.23-8.35-2.53-8.44-8.78-.19-13-.37-26,0-39,.34-10.54,6.06-16.59,16.61-16.91,16.64-.51,33.32-.48,50,0,10.2.3,15.87,6.29,16.18,16.63.4,13.64.32,27.31,0,41a7.16,7.16,0,0,1-11.46,5.88c-2-1.44-3.48-4.9-3.57-7.5-.39-10.81-.17-21.66-.18-32.49a13.9,13.9,0,0,0-.09-3.48c-.2-.74-1.09-1.3-1.68-1.94-.68.71-1.94,1.41-1.94,2.13-.1,12.83-1.31,25.84.45,38.43,1.16,8.22,6.68,15.83,10.26,23.71C246.79,159.51,249.61,165.65,252.89,172.83Z" />
                              <path class="cls-1" d="M73.88,152.37v19c0,19.66,0,39.32,0,59,0,8.19-4.29,11.59-12.18,10-4.65-.93-6.76-3.72-6.73-8.44.07-11.32,0-22.65,0-34q0-48,0-96a11.43,11.43,0,0,0-.09-3.47c-.29-.85-1.32-1.45-2-2.16-.56.68-1.52,1.31-1.6,2a52,52,0,0,0-.1,6q0,24,0,48c0,4.21-1.12,7.66-5.84,8.57-5.81,1.13-9.39-1.93-9.44-8.4-.12-15.49,0-31,0-46.48,0-6-.1-12,0-18,.19-8.78,4.62-14.25,13.44-15.06,9.43-.87,19-.86,28.43-.88,8.32,0,16.68,0,24.94.79,9.22.87,13.9,5.72,14,15.07.35,21.49.23,43,0,64.47-.06,6.38-2.66,8.72-7.92,8.63-5.1-.1-7.47-2.8-7.49-9.06-.06-16.66,0-33.32,0-50a22.1,22.1,0,0,0-.12-4c-.12-.62-1.08-1.66-1.4-1.57-.78.21-1.85.87-2,1.54a20.12,20.12,0,0,0-.18,4.47q0,64,0,128c0,7.33-2.55,10.07-9.2,10.18s-9.52-2.75-9.53-9.27q0-37.49,0-75C78.89,153.31,78.77,150.77,73.88,152.37Z" />
                              <path class="cls-1" d="M228.05,52.18A17,17,0,1,1,194,51.66a17,17,0,1,1,34.08.52Z" />
                              <path class="cls-1" d="M76.49,35.51A17,17,0,0,1,93,52.7c-.26,9.82-8.25,18.07-17.24,17.81-9.28-.27-16.92-9.17-16.39-19.08A16.65,16.65,0,0,1,76.49,35.51Z" />
                              <line class="cls-2" x1="142.28" y1="19.46" x2="142.28" y2="260.99" />
                            </g>
                          </g>
                        </svg>