<svg xmlns="http://www.w3.org/2000/svg" viewBox="0 0 383.16 382.94"><g id="Capa_2" data-name="Capa 2"><g id="TEXTOS"><path d="M136.23,0V180.92h22.45c0-3.3,0-6.73,0-10.16.12-17.77,11.51-31.21,29-34.14a29.06,29.06,0,0,1,4.84-.37q78.41,0,156.82,0c19.43,0,34.63,15.57,33.83,34.75-.57,13.77-7.52,23.73-20,29.62-1.88.89-2.82,1.79-3.09,4q-7.5,63.39-62.72,95.53c-3,1.76-4,3.56-4,6.93.17,17.7.08,35.41.08,53.53h44.68v22.29H91.57v-22h44.65V357.1c0-17.09-.05-34.18.05-51.27,0-2.38-.59-3.72-2.8-5-37.29-21.3-58.78-53.2-64-95.94,0-.24-.13-.47-.31-1.12H25.34c-.71-5.36-1.41-10.37-2-15.4Q15.84,128.28,8.41,68.16,4.54,36.8.7,5.43A15.66,15.66,0,0,0,0,3V0ZM271,360.61V356.3c0-21.57.05-43.15-.07-64.72,0-2.83.87-4.08,3.47-5.15,21.82-9,38.87-23.52,50.65-44.07a100.37,100.37,0,0,0,12.62-38.51H92.17c.13,8.14,4.31,22.71,9.31,32.71,11.25,22.51,28.36,38.94,51.54,48.75,4.51,1.91,5.86,4.18,5.79,9-.32,20.7-.14,41.41-.14,62.11v4.18ZM25.45,22.62C32,75.72,38.55,128.36,45.06,180.93H113.5V22.62ZM181.16,181.15H347.67c.75,0,1.5,0,2.25,0A11.19,11.19,0,0,0,351.77,159a23.54,23.54,0,0,0-4.83-.26H200.27c-2.74,0-5.49-.09-8.23,0a11.1,11.1,0,0,0-10.83,10.37C181,172.92,181.16,176.78,181.16,181.15Z"/><path d="M91,91.24H69.13V46.67H91Z"/></g></g></svg>