<svg width="20" height="24" viewBox="0 0 20 24" fill="none" xmlns="http://www.w3.org/2000/svg">
    <rect width="20" height="24" fill="#F5F5F5"/>
    <path d="M4.36364 0C2.18182 0 0 1.15855 0 4.36364V20.7273C0 20.7273 0 21.8182 1.09091 21.8182L2.18182 21.8531V22.9091C2.18182 22.9091 2.18182 24 3.27273 24H4.36364C4.36364 24 5.45455 24 5.45455 22.9091V21.8531L14.1818 21.8182V22.9091C14.1818 22.9091 14.1818 24 15.2727 24H16.3636C17.4545 24 17.4545 22.9091 17.4545 22.9091V21.8531L18.5455 21.8182C18.5455 21.8182 19.6364 21.8182 19.6364 20.7273V4.36364C19.6364 1.09091 17.4545 0 15.2727 0H4.36364ZM6 2.18182H13.6364C13.781 2.18182 13.9198 2.23929 14.0221 2.34158C14.1244 2.44387 14.1818 2.58261 14.1818 2.72727C14.1818 2.87194 14.1244 3.01067 14.0221 3.11297C13.9198 3.21526 13.781 3.27273 13.6364 3.27273H6C5.85534 3.27273 5.7166 3.21526 5.61431 3.11297C5.51201 3.01067 5.45455 2.87194 5.45455 2.72727C5.45455 2.58261 5.51201 2.44387 5.61431 2.34158C5.7166 2.23929 5.85534 2.18182 6 2.18182V2.18182ZM4.36364 4.36364H15.2727C17.4545 4.36364 17.4545 6.54545 17.4545 6.54545V10.9091C17.4545 10.9091 17.4545 13.0909 15.2727 13.0909H4.36364C2.18182 13.0909 2.18182 10.9091 2.18182 10.9091V6.54545C2.18182 6.54545 2.18182 4.36364 4.36364 4.36364ZM3.81818 16.3636C4.25217 16.3636 4.66839 16.536 4.97527 16.8429C5.28214 17.1498 5.45455 17.566 5.45455 18C5.45455 18.434 5.28214 18.8502 4.97527 19.1571C4.66839 19.464 4.25217 19.6364 3.81818 19.6364C3.38419 19.6364 2.96798 19.464 2.6611 19.1571C2.35422 18.8502 2.18182 18.434 2.18182 18C2.18182 17.566 2.35422 17.1498 2.6611 16.8429C2.96798 16.536 3.38419 16.3636 3.81818 16.3636V16.3636ZM15.8182 16.3636C16.2522 16.3636 16.6684 16.536 16.9753 16.8429C17.2821 17.1498 17.4545 17.566 17.4545 18C17.4545 18.434 17.2821 18.8502 16.9753 19.1571C16.6684 19.464 16.2522 19.6364 15.8182 19.6364C15.3842 19.6364 14.968 19.464 14.6611 19.1571C14.3542 18.8502 14.1818 18.434 14.1818 18C14.1818 17.566 14.3542 17.1498 14.6611 16.8429C14.968 16.536 15.3842 16.3636 15.8182 16.3636Z" fill="#6E7491"/>
</svg>
