<svg xmlns="http://www.w3.org/2000/svg" viewBox="0 0 512 511.14"><g id="Capa_2" data-name="Capa 2"><g id="TEXTOS"><path d="M469,511.14H381c-6.68-3-11.64-7.38-11.32-15.29.34-8.46.6-17,1.89-25.34,6.34-40.9,25-75.35,55.37-103.48,4.12-3.81,8.15-7.72,12.41-11.77C348.1,301.74,287.2,224.82,255.87,122.93c-14.79,50.19-37.58,94.55-69.08,134.37A389.23,389.23,0,0,1,74.21,354.17c5.49,6.11,10.82,12.47,16.62,18.38,32.4,33.05,49.61,72.54,51.55,118.8.39,9.45-2.42,16.15-11.38,19.79H43c-8.53-3.74-11.27-10.26-11.26-19.46q.39-227.43.33-454.86V30.08c-4.34,0-8.16-.3-11.93.05C10.84,31,4,27.72,0,19.1v-8C4,2.48,10.85,0,20.14,0Q256,.29,491.87,0C501.15,0,508,2.46,512,11.11v8c-4,8.65-10.84,11.88-20.14,11-3.88-.36-7.83-.06-11.93-.06,0,2.92,0,5.07,0,7.23q.09,227.16.32,454.34C480.27,500.85,477.55,507.39,469,511.14ZM449.82,30.35H271.69C273,87.62,292.36,166.91,347.53,237.2a359,359,0,0,0,102.29,89.19ZM62.29,326.43c52.89-31.36,94.92-72.48,126.33-124.22,32-52.73,49.17-110,52-171.83H62.29ZM62.17,481h49.48c-4.59-37.52-20.84-68.46-49.48-94.27Zm387.72-94.33c-28.72,26-45.06,56.88-49.5,94.24h49.5Z"/></g></g></svg>