<svg width="20" height="24" viewBox="0 0 16 24" fill="none" xmlns="http://www.w3.org/2000/svg">
<path fill-rule="evenodd" clip-rule="evenodd" d="M0 8.69184C0 3.89916 3.57772 0 7.97535 0C12.3729 0 15.9506 3.89916 15.9507 8.69184C15.9507 14.6397 8.81355 23.3715 8.50968 23.7404C8.22477 24.0862 7.72645 24.0868 7.44103 23.7404C7.13716 23.3715 0 14.6397 0 8.69184ZM4 7.99998C4 10.2056 5.79438 12 8.00002 12C10.2056 12 12 10.2056 12 8.00002C12 5.7944 10.2056 4 8.00002 4C5.79442 4 4 5.79436 4 7.99998Z" fill="#6E7491"/>
</svg>
