<svg xmlns="http://www.w3.org/2000/svg" viewBox="0 0 510.94 446.55"><g id="Capa_2" data-name="Capa 2"><g id="TEXTOS"><path d="M510.94,240.44c-3.59,10.25-5.77,21.3-11.05,30.59-13.38,23.52-33.8,37.69-61.4,39.28-29.93,1.73-53.82-16.69-60.76-45.93-10.86-45.79,28.21-94.58,75-93.72a58.47,58.47,0,0,1,57.18,50,36.25,36.25,0,0,0,1,3.78ZM406,248.27c-.63,22.88,18.06,37.43,39.76,31,20.27-6,35.56-26.88,35.24-48-.32-20.8-16.82-34-37.2-29.8C423.19,205.7,406.61,226.25,406,248.27Z"/><path d="M64,368c.23-13.09,2.51-25.86,9.44-36.86,21.69-34.44,42-70,66.61-102.28,29.83-39.08,71.69-53.57,120.43-44.79,35,6.31,62,25.58,81.37,55.19q27.72,42.33,54.63,85.2c29.67,47.19,5.49,107.42-48,119.85-15.41,3.59-30.77,3-45.52-3.09-23.33-9.6-47.31-15.34-72.75-14.19-20,.9-38.93,6-57.4,13.48A78.52,78.52,0,0,1,68.49,393a64.4,64.4,0,0,1-2.64-10.1C65,378,64.63,373,64,368Zm315.35,0a44.17,44.17,0,0,0-7.06-25.56c-20.19-31.47-39.42-63.62-61.06-94.06-35.11-49.4-113.69-49.33-148.83.12-21.64,30.44-40.94,62.55-61,94.08-7.53,11.82-9.14,24.93-5.23,38.35,8.4,28.81,37.65,42.21,66.45,31.61a303.82,303.82,0,0,1,43.86-12.76c24.93-5.1,50-3.77,74.61,2.72,11.52,3.05,22.7,7.41,34,11.3C346.36,424.64,379.47,401.1,379.39,368.05Z"/><path d="M274.28,87.14c-.9,25.48-9.63,49-30.56,66.88-27.66,23.65-66.44,22.26-92.69-3.08-34.78-33.58-35.94-94-2.46-128.49,32.64-33.6,83.07-28.9,109.55,10.18C269,48.67,274,66.45,274.28,87.14Zm-78.44,53.75c15.92,0,28.71-6.95,36.35-17.83a64.8,64.8,0,0,0,.3-74.73c-16.67-24.27-49.74-24.52-66.41-.27-14.77,21.5-16,44.41-4.49,67.47C169.12,130.67,181.37,140.34,195.84,140.89Z"/><path d="M423.66,111.26c-1.5,30.32-12.77,54.89-37.84,71.71-37.35,25.06-82.36,9.81-97.62-32.64C274.23,111.48,293,65,329.91,46.9c34.67-16.95,74.61-.79,88.19,35.78a82.32,82.32,0,0,1,3.83,13.38C422.9,101.26,423.16,106.59,423.66,111.26ZM393.73,110c-.84-3.91-1.59-10.22-3.57-16.13-6.81-20.41-27.87-29.14-47.1-19.9-23.43,11.27-35.9,43.36-26.32,67.74,8.47,21.58,29.39,29.61,49.57,18.25C384.59,149.67,392.09,132.66,393.73,110Z"/><path d="M131.06,176.67c-.72,23.36-8.49,43.56-28.93,56.46-23.26,14.68-46.56,11.59-68.74-3.19C4.73,210.85-7.87,169.16,5.1,137.3,21.46,97.11,68.18,86,102,114.49,121.09,130.64,130.32,151.66,131.06,176.67Zm-30.14-3.19c-.83-15.34-8.12-30.46-24.49-40.28S41.13,129.69,33.58,147c-9.2,21.09.29,49.39,20.4,60.81,13,7.39,27,6.13,36.71-3.72C98.08,196.57,100.86,187.14,100.92,173.48Z"/></g></g></svg>