<svg xmlns="http://www.w3.org/2000/svg" viewBox="0 0 335.41 263.62"><g id="Capa_2" data-name="Capa 2"><g id="TEXTOS"><path d="M287.79,215.66c-.31,6.31-.08,12.1-1,17.73a35.31,35.31,0,0,1-35.15,30.15c-20.46.15-40.92,0-61.38,0H38.37C15.14,263.57,0,248.41,0,225.15Q0,155.72,0,86.28C0,63.06,15.17,47.94,38.43,47.93h9.49c0-3.49,0-6.81,0-10.12C48,15.34,63.28,0,85.77,0H297.6c22.48,0,37.79,15.34,37.8,37.85q0,70,0,140c0,22.5-15.34,37.77-37.86,37.8Zm-144,24H249.68c9.21,0,13.85-4.6,13.85-13.77q0-70,0-140c0-9.36-4.63-13.94-14.06-13.94H38c-9.48,0-14,4.52-14,14V225.48c0,9.64,4.53,14.13,14.24,14.13ZM71.91,47.93H249.3c23,0,38.18,15.2,38.19,38.22q0,50.54,0,101.08v4.46H297c10,0,14.43-4.39,14.43-14.31q0-69.43,0-138.89C311.44,28.35,307,24,296.85,24H86.5c-1.12,0-2.25,0-3.37,0A11.83,11.83,0,0,0,72,35.08C71.73,39.17,71.91,43.29,71.91,47.93Z"/><path d="M83.85,155.94q0-23.38,0-46.79c0-10.76,8.8-16.21,18.48-11.39Q149,121,195.58,144.37c7,3.5,9.93,9.85,6.92,15.88a15.28,15.28,0,0,1-6.33,6.48Q149,190.64,101.63,214.08c-9,4.47-17.72-1.21-17.76-11.35C83.81,187.14,83.85,171.54,83.85,155.94ZM108,184.2l56.86-28.46L108,127.31Z"/></g></g></svg>