<svg xmlns="http://www.w3.org/2000/svg" viewBox="0 0 255.7 351.64"><g id="Capa_2" data-name="Capa 2"><g id="TEXTOS"><path d="M56.05,271.58c-2.72,0-4.84,0-6.95,0-6-.1-8.93-3-9-9.05-.06-11.73,0-23.45,0-35.18,0-1.1-.11-2.19-.2-3.9-4,0-7.89.43-11.65-.07-16.42-2.21-28-15-28.11-31.72C-.1,152.11,0,112.56.08,73c0-6,3.09-8.87,9.07-9,2.11,0,4.22,0,7,0V59.48q0-24.51,0-49C16.16,2.72,18.8,0,26.42,0h75.24C109.16,0,112,2.9,112,10.5q0,24.53,0,49V64c2.73,0,5.07-.06,7.4,0,5.32.17,8.47,3.14,8.48,8.38,0,40.18.17,80.35-.09,120.52-.11,16.64-14.11,30.16-30.78,30.68-2.84.09-5.69,0-9,0,0,3.55,0,6.75,0,10,0,9.35,0,18.71,0,28.07,0,7-3,9.89-10.08,9.91H71.27C72,283.34,71.48,295,73.7,306c3.35,16.72,19.23,28.81,36.36,29.2,14.72.34,29.46.39,44.17,0,19.92-.56,36.57-17.45,37.38-37.36.18-4.49.13-9,.13-13.47q0-93.19,0-186.4c0-15.16,7.41-26.74,20.47-31.76a28.39,28.39,0,0,1,9.05-2c8.73-.3,17.47-.25,26.2-.16,4.83.05,8.24,3.49,8.23,7.88s-3.44,7.85-8.24,7.94c-6.74.12-13.51.45-20.21-.06-11.49-.86-19.63,6.42-19.57,19.32q.52,97.31.1,194.62c-.07,24.68-11.41,42.77-34,53a51.81,51.81,0,0,1-19.13,4.43c-16.2.52-32.48.8-48.63-.31C78.7,349,56.62,324.8,56.07,297.36,55.91,288.9,56.05,280.45,56.05,271.58ZM112,80.15H16.15V84q0,52.77,0,105.54c0,11.94,6.27,18.17,18.26,18.18q29.38,0,58.78,0c12.62,0,18.79-6.21,18.79-18.9q0-52.21,0-104.42ZM32.16,63.73h63.4V16.42H32.16ZM71.72,255.45v-31.6H56.21v31.6Z"/><path d="M88,143.85c0,7.6.07,15.2,0,22.8-.07,5.49-3.21,9-7.87,9.08S72,172.22,72,166.58c-.08-10.33,0-20.68,0-31,0-4.85-.07-9.71,0-14.57.09-5.49,3.16-8.93,7.87-9,4.92-.07,8.12,3.37,8.18,9.07C88.1,128.65,88,136.25,88,143.85Z"/><path d="M40.11,143.7c0-7.6,0-15.2,0-22.79,0-5.58,3-8.89,7.84-8.93s8,3.39,8,8.79q.06,23.16,0,46.33c0,4.49-2.51,7.65-6.4,8.49A7.7,7.7,0,0,1,41,171.2a14,14,0,0,1-.83-5.08C40.07,158.64,40.11,151.17,40.11,143.7Z"/></g></g></svg>